<?xml version="1.0" standalone="no"?>
<!DOCTYPE svg PUBLIC "-//W3C//DTD SVG 20010904//EN"
 "http://www.w3.org/TR/2001/REC-SVG-20010904/DTD/svg10.dtd">
<svg version="1.0" xmlns="http://www.w3.org/2000/svg"
 width="600.000000pt" height="600.000000pt" viewBox="0 0 600.000000 600.000000"
 preserveAspectRatio="xMidYMid meet">
<metadata>
Created by potrace 1.11, written by Peter Selinger 2001-2013
</metadata>
<g transform="translate(0.000000,600.000000) scale(0.100000,-0.100000)"
fill="#000000" stroke="none">
<path d="M9 4764 c-9 -12 -13 -3473 -3 -3499 6 -13 323 -15 2990 -15 2924 0
2983 0 2993 19 12 22 70 -37 -589 611 -260 256 -624 614 -809 797 l-336 331
282 279 c1349 1333 1453 1437 1453 1460 0 12 -6 24 -12 24 -7 1 -1351 2 -2986
3 -2128 1 -2976 -2 -2983 -10z"/>
</g>
</svg>
